<?xml version="1.0" standalone="no"?>
<!DOCTYPE svg PUBLIC "-//W3C//DTD SVG 20010904//EN"
 "http://www.w3.org/TR/2001/REC-SVG-20010904/DTD/svg10.dtd">
<svg version="1.0" xmlns="http://www.w3.org/2000/svg"
 width="6378.000000pt" height="2126.000000pt" viewBox="0 0 6378.000000 2126.000000"
 preserveAspectRatio="xMidYMid meet">
<metadata>
Created by potrace 1.15, written by Peter Selinger 2001-2017
</metadata>
<g transform="translate(0.000000,2126.000000) scale(0.100000,-0.100000)"
fill="#000000" stroke="none">
<path d="M18400 14218 c-89 -12 -232 -62 -300 -103 -233 -142 -358 -401 -415
-865 -22 -173 -31 -716 -16 -940 33 -489 111 -740 286 -915 156 -157 330 -215
645 -216 203 -1 379 30 513 89 l47 21 0 197 c0 182 -1 196 -17 191 -10 -3 -56
-22 -103 -41 -118 -48 -262 -76 -399 -76 -133 0 -197 12 -274 53 -199 105
-267 384 -267 1092 0 799 84 1055 370 1126 79 19 267 17 370 -5 70 -14 185
-53 273 -91 16 -7 17 6 17 193 l0 200 -62 25 c-75 29 -168 53 -263 67 -85 12
-316 11 -405 -2z"/>
<path d="M28658 14215 c-418 -79 -604 -392 -659 -1109 -15 -202 -6 -827 15
-996 72 -573 246 -836 606 -910 110 -23 370 -29 483 -10 451 72 639 391 688
1166 13 208 7 702 -11 869 -30 284 -75 466 -153 625 -92 188 -226 296 -432
351 -105 28 -418 36 -537 14z m414 -384 c228 -88 299 -399 285 -1256 -8 -473
-31 -656 -102 -811 -42 -93 -90 -144 -167 -180 -60 -27 -70 -29 -198 -29 -125
0 -139 2 -191 26 -138 65 -205 197 -246 489 -26 182 -26 1085 -1 1265 47 328
125 461 299 510 79 22 246 15 321 -14z"/>
<path d="M37965 14215 c-199 -31 -350 -96 -459 -197 -187 -171 -281 -404 -333
-828 -24 -202 -25 -815 0 -1037 30 -264 79 -453 155 -598 45 -85 173 -218 252
-263 73 -40 186 -78 296 -97 119 -21 384 -21 534 0 129 18 350 73 423 104 l47
20 0 801 0 800 -430 0 -430 0 0 -180 0 -180 220 0 220 0 -2 -487 -3 -488 -55
-14 c-37 -9 -116 -14 -240 -15 -170 -1 -190 1 -241 22 -238 95 -312 320 -326
982 -21 1028 131 1309 697 1287 155 -6 284 -35 408 -92 41 -19 76 -35 78 -35
2 0 4 89 4 199 l0 199 -48 20 c-71 31 -185 61 -292 77 -115 18 -364 18 -475 0z"/>
<path d="M53200 14224 c-153 -19 -311 -69 -413 -130 -76 -47 -191 -161 -235
-237 -107 -178 -173 -423 -202 -747 -13 -149 -13 -700 0 -866 29 -357 89 -582
202 -750 66 -99 144 -166 253 -219 151 -73 273 -96 520 -96 246 0 522 48 698
123 l47 20 0 799 0 799 -430 0 -430 0 0 -180 0 -180 215 0 215 0 -2 -487 -3
-488 -55 -13 c-87 -22 -390 -22 -461 0 -202 63 -291 246 -330 673 -14 163 -14
710 1 869 40 428 145 626 375 703 75 25 91 27 260 27 163 0 189 -3 278 -27 54
-14 134 -42 178 -61 l79 -34 -2 201 -3 202 -71 27 c-134 51 -250 70 -459 73
-104 2 -206 1 -225 -1z"/>
<path d="M9580 10630 l0 -3550 210 0 210 0 0 3177 0 3178 1165 -1165 1165
-1165 0 -2012 0 -2013 215 0 215 0 0 2103 0 2102 -1448 1448 -1447 1447 -143
0 -142 0 0 -3550z"/>
<path d="M14170 12705 l0 -1475 210 0 210 0 0 670 0 670 370 0 370 0 0 180 0
180 -370 0 -370 0 0 445 0 445 460 0 460 0 0 180 0 180 -670 0 -670 0 0 -1475z"/>
<path d="M15846 12718 c-214 -805 -391 -1469 -394 -1476 -3 -10 41 -12 213
-10 l218 3 83 325 c46 179 83 326 84 328 0 1 178 1 396 0 l397 -3 84 -324 c46
-179 85 -326 87 -328 2 -2 102 -2 223 -1 l220 3 -391 1470 -391 1470 -220 3
-220 2 -389 -1462z m684 532 c27 -135 90 -408 140 -608 49 -199 90 -367 90
-372 0 -6 -116 -10 -310 -10 -201 0 -310 4 -310 10 0 6 36 150 81 320 89 346
150 608 200 872 l34 178 13 -73 c8 -39 36 -182 62 -317z"/>
<path d="M19550 13102 c0 -710 4 -1116 11 -1188 24 -242 92 -409 213 -530 150
-148 326 -204 646 -205 320 0 499 58 651 210 127 128 196 303 218 558 7 72 11
530 11 1176 l0 1057 -215 0 -214 0 -3 -1137 c-3 -1052 -5 -1143 -21 -1198 -42
-142 -108 -224 -216 -267 -49 -20 -74 -23 -206 -23 -134 0 -156 3 -209 24
-104 42 -169 119 -210 250 -20 65 -21 87 -24 1209 l-3 1142 -214 0 -215 0 0
-1078z"/>
<path d="M21920 12705 l0 -1475 670 0 670 0 0 180 0 180 -455 0 -455 0 0 1295
0 1295 -215 0 -215 0 0 -1475z"/>
<path d="M23100 14000 l0 -180 320 0 320 0 0 -1295 0 -1295 210 0 210 0 0
1295 0 1295 320 0 320 0 0 180 0 180 -850 0 -850 0 0 -180z"/>
<path d="M24953 14168 c3 -7 185 -398 406 -869 l401 -857 0 -606 0 -606 210 0
210 0 0 608 0 607 400 858 c220 473 400 863 400 868 0 6 -93 8 -226 7 l-226
-3 -183 -417 c-194 -441 -282 -652 -336 -810 -19 -54 -36 -98 -39 -98 -3 0
-23 53 -44 118 -62 188 -112 311 -316 775 l-193 437 -234 0 c-184 0 -234 -3
-230 -12z"/>
<path d="M30330 12705 l0 -1475 215 0 215 0 0 670 0 670 365 0 365 0 0 180 0
180 -365 0 -365 0 0 445 0 445 455 0 455 0 0 180 0 180 -670 0 -670 0 0 -1475z"/>
<path d="M32940 12705 l0 -1475 695 0 695 0 0 180 0 180 -480 0 -480 0 0 490
0 490 385 0 385 0 0 180 0 180 -385 0 -385 0 0 445 0 445 480 0 480 0 0 180 0
180 -695 0 -695 0 0 -1475z"/>
<path d="M34860 12705 l0 -1475 205 0 205 0 0 863 c0 848 -4 1000 -36 1265 -8
74 -14 136 -12 138 2 2 207 -506 455 -1129 l450 -1132 247 -3 246 -2 0 1475 0
1475 -205 0 -205 0 0 -848 c0 -828 5 -1024 35 -1297 8 -71 13 -130 11 -132 -1
-1 -205 509 -452 1135 l-450 1137 -247 3 -247 2 0 -1475z"/>
<path d="M39490 12705 l0 -1475 210 0 210 0 0 1475 0 1475 -210 0 -210 0 0
-1475z"/>
<path d="M40560 12705 l0 -1475 206 0 206 0 -5 923 c-4 944 -6 988 -47 1286
-6 41 -9 75 -8 77 2 1 208 -513 458 -1142 l455 -1144 242 0 243 0 0 1475 0
1475 -200 0 -200 0 0 -892 c0 -869 4 -1017 34 -1283 7 -60 12 -111 11 -112 0
-1 -142 354 -315 790 -172 435 -376 951 -452 1145 l-140 352 -244 0 -244 0 0
-1475z"/>
<path d="M42960 12705 l0 -1475 690 0 690 0 0 180 0 180 -475 0 -475 0 0 490
0 490 385 0 385 0 0 180 0 180 -385 0 -385 0 0 445 0 445 475 0 475 0 0 180 0
180 -690 0 -690 0 0 -1475z"/>
<path d="M44880 12705 l0 -1475 695 0 695 0 0 180 0 180 -480 0 -480 0 0 490
0 490 385 0 385 0 0 180 0 180 -385 0 -385 0 0 445 0 445 480 0 480 0 0 180 0
180 -695 0 -695 0 0 -1475z"/>
<path d="M46800 12705 l0 -1475 215 0 215 0 0 600 0 600 134 0 133 0 275 -597
275 -598 242 -3 c151 -1 241 1 241 7 0 6 -138 292 -306 636 -169 344 -305 628
-303 630 3 2 26 13 53 25 145 62 287 196 355 333 70 143 86 222 86 442 0 209
-11 285 -63 418 -101 260 -328 408 -684 447 -54 5 -271 10 -483 10 l-385 0 0
-1475z m756 1105 c300 -27 409 -147 421 -465 10 -263 -53 -424 -193 -495 -87
-43 -140 -52 -351 -57 l-203 -6 0 517 0 516 108 0 c59 0 157 -5 218 -10z"/>
<path d="M48980 12705 l0 -1475 210 0 210 0 0 1475 0 1475 -210 0 -210 0 0
-1475z"/>
<path d="M50050 12705 l0 -1475 206 0 206 0 -5 913 c-5 926 -8 1009 -47 1288
-6 39 -9 73 -7 75 2 2 207 -509 457 -1136 l453 -1140 244 0 243 0 0 1475 0
1475 -201 0 -200 0 4 -982 c3 -851 6 -1002 21 -1127 9 -79 15 -148 14 -153 -2
-4 -205 502 -452 1127 l-450 1135 -243 0 -243 0 0 -1475z"/>
<path d="M8740 9210 l0 -2130 215 0 215 0 0 2130 0 2130 -215 0 -215 0 0
-2130z"/>
<path d="M26550 10079 c-229 -16 -394 -82 -520 -209 -169 -170 -257 -412 -300
-825 -18 -173 -24 -624 -11 -845 22 -363 63 -573 150 -755 138 -290 375 -415
786 -415 192 0 375 32 508 89 l47 20 0 197 c0 182 -1 196 -17 191 -10 -3 -47
-17 -82 -32 -35 -15 -107 -38 -160 -52 -82 -22 -118 -26 -251 -27 -139 -1
-162 1 -225 23 -57 20 -81 35 -131 85 -96 97 -144 241 -176 526 -20 184 -17
878 5 1057 49 396 150 545 397 584 151 23 372 -9 539 -79 l71 -30 0 199 0 198
-47 21 c-77 35 -231 70 -328 76 -49 3 -101 6 -115 8 -14 1 -77 -1 -140 -5z"/>
<path d="M35434 10079 c-435 -28 -681 -263 -778 -744 -85 -420 -83 -1218 4
-1618 82 -374 251 -572 558 -654 90 -25 113 -27 312 -27 230 -1 301 8 449 59
122 41 111 17 111 240 0 107 -4 195 -9 195 -4 0 -37 -13 -72 -29 -126 -56
-293 -91 -438 -91 -319 1 -451 139 -506 533 -35 251 -42 787 -14 1102 43 493
173 655 525 655 126 0 344 -49 447 -101 l37 -19 0 200 0 201 -47 20 c-79 34
-232 69 -328 75 -49 3 -101 6 -115 8 -14 1 -75 -1 -136 -5z"/>
<path d="M14236 8567 c-214 -804 -391 -1468 -394 -1475 -3 -10 41 -12 214 -10
l219 3 84 333 84 332 393 0 392 0 11 -32 c5 -18 45 -169 87 -335 l78 -303 224
0 c175 0 223 3 220 13 -3 6 -180 670 -394 1475 l-388 1462 -221 0 -220 0 -389
-1463z m639 777 c42 -242 94 -478 190 -861 l92 -373 -313 0 c-173 0 -314 3
-314 7 0 4 39 158 86 341 93 361 169 696 205 902 13 71 25 128 26 126 2 -2 14
-65 28 -142z"/>
<path d="M16160 8555 l0 -1475 206 0 205 0 -4 948 c-3 907 -4 955 -26 1126
-12 98 -20 183 -19 188 2 5 206 -501 454 -1124 l451 -1133 247 -3 246 -2 0
1475 0 1475 -205 0 -205 0 0 -854 c0 -835 5 -1012 35 -1291 8 -71 13 -130 12
-132 -2 -1 -205 510 -453 1135 l-449 1137 -248 3 -247 2 0 -1475z"/>
<path d="M18560 8556 l0 -1476 428 0 c568 0 661 11 839 96 339 162 463 531
463 1384 0 802 -106 1163 -395 1347 -61 39 -156 75 -256 99 -64 15 -145 18
-576 21 l-503 4 0 -1475z m856 1114 c253 -33 356 -173 411 -560 26 -186 26
-916 0 -1109 -49 -356 -145 -505 -355 -550 -30 -6 -147 -11 -267 -11 l-215 0
0 1120 0 1120 178 0 c97 0 209 -5 248 -10z"/>
<path d="M21746 8568 c-214 -805 -391 -1469 -394 -1476 -3 -10 41 -12 214 -10
l218 3 76 305 c42 168 80 317 83 333 l7 27 395 0 394 0 9 -32 c5 -18 44 -169
87 -335 l78 -303 225 0 c175 0 223 3 220 13 -3 6 -180 670 -394 1474 l-389
1463 -220 0 -221 0 -388 -1462z m643 742 c43 -238 105 -517 195 -877 42 -167
76 -307 76 -313 0 -7 -105 -10 -310 -10 -217 0 -310 3 -310 11 0 6 36 149 80
317 86 333 161 659 206 899 15 84 29 151 30 150 1 -1 16 -81 33 -177z"/>
<path d="M23670 8556 l0 -1476 215 0 215 0 0 600 0 600 134 0 134 0 275 -597
275 -598 241 -3 c163 -1 241 1 241 8 0 6 -138 292 -306 636 -168 344 -304 627
-302 629 2 2 40 22 83 44 200 100 331 265 386 483 27 108 36 334 19 461 -49
369 -241 578 -605 660 -81 18 -133 20 -547 24 l-458 5 0 -1476z m891 1086
c205 -58 289 -201 289 -489 -1 -230 -63 -378 -188 -446 -80 -44 -160 -57 -369
-64 l-193 -6 0 518 0 518 198 -6 c150 -4 213 -10 263 -25z"/>
<path d="M27670 8555 l0 -1475 215 0 215 0 0 670 0 670 440 0 440 0 0 -670 0
-670 215 0 215 0 0 1475 0 1475 -215 0 -215 0 0 -625 0 -625 -440 0 -440 0 0
625 0 625 -215 0 -215 0 0 -1475z"/>
<path d="M30060 8555 l0 -1475 210 0 210 0 0 1475 0 1475 -210 0 -210 0 0
-1475z"/>
<path d="M30820 9850 l0 -180 315 0 315 0 0 -1295 0 -1295 215 0 215 0 0 1295
0 1295 320 0 320 0 0 180 0 180 -850 0 -850 0 0 -180z"/>
<path d="M32850 8555 l0 -1475 695 0 695 0 0 180 0 180 -480 0 -480 0 0 490 0
490 385 0 385 0 0 180 0 180 -385 0 -385 0 0 445 0 445 480 0 480 0 0 180 0
180 -695 0 -695 0 0 -1475z"/>
<path d="M36300 9850 l0 -180 315 0 315 0 0 -1295 0 -1295 215 0 215 0 0 1295
0 1295 320 0 320 0 0 180 0 180 -850 0 -850 0 0 -180z"/>
<path d="M38300 8963 c0 -680 4 -1110 11 -1182 31 -338 154 -555 370 -659 154
-74 294 -97 548 -89 293 8 447 62 591 207 109 108 166 227 206 430 16 76 18
202 21 1223 l4 1137 -216 0 -215 0 0 -1097 c0 -701 -4 -1122 -10 -1163 -31
-193 -102 -294 -246 -346 -71 -26 -308 -26 -379 0 -141 52 -215 155 -244 344
-7 48 -11 422 -11 1166 l0 1096 -215 0 -215 0 0 -1067z"/>
<path d="M40670 8555 l0 -1475 215 0 215 0 0 600 0 600 133 0 134 0 275 -597
275 -598 242 -3 c147 -1 241 1 241 7 0 5 -135 285 -300 622 -165 336 -302 620
-305 629 -4 14 8 24 61 49 306 143 449 422 431 839 -11 261 -74 429 -212 568
-66 67 -97 89 -175 128 -189 92 -296 106 -827 106 l-403 0 0 -1475z m790 1105
c272 -36 374 -157 387 -460 9 -206 -30 -353 -116 -439 -86 -86 -173 -110 -438
-118 l-193 -6 0 517 0 516 143 0 c78 0 176 -5 217 -10z"/>
<path d="M42850 8555 l0 -1475 690 0 690 0 0 180 0 180 -480 0 -480 0 0 490 0
490 385 0 385 0 0 180 0 180 -385 0 -385 0 0 445 0 445 480 0 480 0 0 180 0
180 -690 0 -690 0 0 -1475z"/>
<path d="M7910 8455 l0 -1375 215 0 215 0 0 1375 0 1375 -215 0 -215 0 0
-1375z"/>
<path d="M7080 7700 l0 -620 215 0 215 0 0 620 0 620 -215 0 -215 0 0 -620z"/>
</g>
</svg>
