<?xml version="1.0" standalone="no"?>
<!DOCTYPE svg PUBLIC "-//W3C//DTD SVG 20010904//EN"
 "http://www.w3.org/TR/2001/REC-SVG-20010904/DTD/svg10.dtd">
<svg version="1.0" xmlns="http://www.w3.org/2000/svg"
 width="270.000000pt" height="235.000000pt" viewBox="0 0 270.000000 235.000000"
 preserveAspectRatio="xMidYMid meet">
<metadata>
Created by potrace 1.15, written by Peter Selinger 2001-2017
</metadata>
<g transform="translate(0.000000,235.000000) scale(0.100000,-0.100000)"
fill="#000000" stroke="none">
<path d="M305 2218 c-250 -89 -250 -89 -250 -118 0 -25 3 -29 20 -24 11 4 125
44 254 90 l233 83 252 -88 251 -89 3 25 c2 14 1 27 -1 30 -6 5 -460 167 -492
175 -11 3 -130 -34 -270 -84z"/>
<path d="M148 2005 l30 -25 389 0 390 0 23 25 23 25 -442 0 -443 0 30 -25z"/>
<path d="M180 1720 l0 -190 25 0 25 0 0 190 0 190 -25 0 -25 0 0 -190z"/>
<path d="M295 1720 l0 -190 28 0 27 0 0 190 0 190 -27 0 -28 0 0 -190z"/>
<path d="M415 1720 l0 -190 28 0 27 0 0 190 0 190 -27 0 -28 0 0 -190z"/>
<path d="M540 1720 l0 -190 25 0 25 0 0 190 0 190 -25 0 -25 0 0 -190z"/>
<path d="M655 1720 l0 -190 28 0 27 0 0 190 0 190 -27 0 -28 0 0 -190z"/>
<path d="M775 1720 l0 -190 28 0 27 0 0 190 0 190 -27 0 -28 0 0 -190z"/>
<path d="M895 1720 l0 -190 28 0 27 0 0 190 0 190 -27 0 -28 0 0 -190z"/>
<path d="M115 1435 l0 -25 448 0 447 0 0 25 0 25 -447 0 -448 0 0 -25z"/>
<path d="M55 1315 l0 -25 508 0 507 0 0 25 0 25 -507 0 -508 0 0 -25z"/>
<path d="M94 1017 c-32 -29 -36 -40 -46 -110 -8 -55 -8 -99 0 -154 9 -68 15
-81 43 -107 30 -27 36 -28 104 -24 39 3 77 8 83 12 8 5 12 44 12 117 l0 109
-60 0 c-53 0 -60 -2 -60 -20 0 -16 7 -20 30 -20 l30 0 0 -76 0 -75 -47 3 c-43
3 -50 6 -66 38 -27 52 -21 217 9 257 19 25 27 28 83 28 56 0 61 2 61 21 0 27
-17 34 -86 34 -47 0 -59 -4 -90 -33z"/>
<path d="M360 835 l0 -205 30 0 30 0 0 95 0 95 65 0 65 0 0 -95 0 -95 30 0 30
0 0 205 0 205 -30 0 -29 0 -3 -87 -3 -88 -62 -3 -63 -3 0 91 0 90 -30 0 -30 0
0 -205z"/>
<path d="M700 835 l0 -205 95 0 c88 0 95 1 95 20 0 18 -7 20 -70 20 l-70 0 0
75 0 75 55 0 c48 0 55 3 55 19 0 17 -8 20 -52 23 l-53 3 -3 68 -3 67 71 0 c63
0 70 2 70 20 0 19 -7 20 -95 20 l-95 0 0 -205z"/>
<path d="M960 836 l0 -206 31 0 32 0 -6 161 c-3 88 -4 159 -2 157 1 -2 30 -74
65 -160 l62 -158 34 0 34 0 0 205 0 205 -25 0 -24 0 -3 -157 -3 -157 -61 155
-62 154 -36 3 -36 3 0 -205z"/>
<path d="M1270 1020 c0 -17 7 -20 45 -20 l45 0 0 -185 0 -185 30 0 30 0 0 185
0 185 45 0 c38 0 45 3 45 20 0 19 -7 20 -120 20 -113 0 -120 -1 -120 -20z"/>
<path d="M1819 450 c-48 -14 -67 -30 -79 -65 -19 -58 -4 -93 66 -161 51 -49
64 -68 64 -92 0 -49 -24 -65 -87 -59 -47 5 -53 4 -53 -13 0 -29 36 -43 93 -37
64 6 107 47 107 103 0 49 -13 70 -81 134 -44 41 -59 63 -59 83 0 53 60 84 111
57 16 -9 19 -7 19 15 0 14 -6 27 -12 29 -35 11 -65 13 -89 6z"/>
<path d="M60 443 c-5 -80 3 -361 11 -374 23 -43 102 -61 168 -38 54 19 61 47
61 244 l0 176 -26 -3 -26 -3 1 -151 c2 -194 -8 -224 -76 -224 -57 0 -63 22
-63 212 l0 168 -25 0 c-14 0 -25 -3 -25 -7z"/>
<path d="M380 240 l0 -210 31 0 32 0 -5 160 c-3 88 -4 160 -3 160 1 0 30 -72
65 -160 l63 -160 34 0 33 0 0 210 0 210 -25 0 -26 0 3 -160 c2 -88 1 -160 -2
-160 -3 0 -34 72 -68 160 l-63 160 -35 0 -34 0 0 -210z"/>
<path d="M720 240 l0 -210 30 0 30 0 0 210 0 210 -30 0 -30 0 0 -210z"/>
<path d="M840 440 c0 -6 18 -84 41 -173 66 -264 56 -239 91 -235 l32 3 52 208
52 207 -29 0 c-21 0 -30 -6 -34 -22 -3 -13 -18 -79 -35 -148 -16 -68 -30 -135
-30 -148 0 -13 -4 -20 -10 -17 -5 3 -10 18 -10 33 0 15 -15 88 -33 162 -31
130 -33 135 -60 138 -15 2 -27 -2 -27 -8z"/>
<path d="M1170 240 l0 -210 95 0 c95 0 95 0 95 25 0 24 -2 25 -70 25 l-70 0 0
70 0 70 55 0 c52 0 55 1 55 25 0 24 -3 25 -55 25 l-55 0 0 65 0 65 70 0 c68 0
70 1 70 25 0 25 0 25 -95 25 l-95 0 0 -210z"/>
<path d="M1430 240 l0 -210 30 0 30 0 0 85 c0 82 1 85 23 85 18 0 29 -14 59
-83 35 -78 38 -82 71 -85 l35 -3 -43 88 -42 88 30 26 c25 21 31 34 35 82 8 97
-39 137 -163 137 l-65 0 0 -210z m152 143 c23 -21 25 -95 2 -117 -9 -9 -32
-16 -55 -16 l-39 0 0 75 0 75 37 0 c20 0 45 -7 55 -17z"/>
<path d="M2000 240 l0 -210 30 0 30 0 0 210 0 210 -30 0 -30 0 0 -210z"/>
<path d="M2120 425 c0 -23 4 -25 45 -25 l45 0 0 -185 0 -185 30 0 30 0 0 185
0 185 45 0 c41 0 45 2 45 25 l0 25 -120 0 -120 0 0 -25z"/>
<path d="M2390 446 c0 -1 25 -56 55 -120 54 -114 55 -118 55 -206 l0 -90 30 0
30 0 0 86 c0 82 2 89 55 204 30 65 55 121 55 124 0 3 -13 6 -28 6 -26 0 -31
-7 -68 -95 -21 -52 -41 -95 -44 -95 -3 0 -10 17 -17 38 -6 20 -23 63 -37 95
-23 51 -29 57 -56 57 -16 0 -30 -2 -30 -4z"/>
</g>
</svg>
